<?xml version="1.0" encoding="iso-8859-1"?>
<!-- Uploaded to: SVG Repo, www.svgrepo.com, Generator: SVG Repo Mixer Tools -->
<!DOCTYPE svg PUBLIC "-//W3C//DTD SVG 1.1//EN" "http://www.w3.org/Graphics/SVG/1.1/DTD/svg11.dtd">
<svg fill="#000000" height="800px" width="800px" version="1.1" id="Capa_1" xmlns="http://www.w3.org/2000/svg" xmlns:xlink="http://www.w3.org/1999/xlink" 
	 viewBox="0 0 360 360" xml:space="preserve">
<path d="M355.606,94.394l-60-60c-5.857-5.858-15.355-5.858-21.213,0l-60,60c-4.29,4.29-5.573,10.742-3.252,16.347
	c2.322,5.605,7.791,9.26,13.858,9.26h15v180h-30V180c0-8.284-6.716-15-15-15h-60c-8.284,0-15,6.716-15,15v120H90v-55
	c0-8.284-6.716-15-15-15H15c-8.284,0-15,6.716-15,15v70c0,8.284,6.716,15,15,15h60h60h60h60h60c8.284,0,15-6.716,15-15V120h15
	c6.067,0,11.536-3.655,13.858-9.26C361.18,105.136,359.897,98.684,355.606,94.394z M30,300v-40h30v40H30z M150,300V195h30v105H150z
	 M270,300V105c0-6.432-4.049-11.919-9.736-14.05L285,66.214l24.736,24.736C304.049,93.081,300,98.568,300,105v195H270z"/>
</svg>