<?xml version="1.0" encoding="iso-8859-1"?>
<!-- Uploaded to: SVG Repo, www.svgrepo.com, Generator: SVG Repo Mixer Tools -->
<svg height="800px" width="800px" version="1.1" id="Layer_1" xmlns="http://www.w3.org/2000/svg" xmlns:xlink="http://www.w3.org/1999/xlink" 
	 viewBox="0 0 512 512" xml:space="preserve">
<path style="fill:#C1C1C1;" d="M40.421,439.242h431.158c17.86,0,32.337,14.477,32.337,32.337l0,0
	c0,17.86-14.477,32.337-32.337,32.337H40.421c-17.86,0-32.337-14.477-32.337-32.337l0,0
	C8.084,453.719,22.561,439.242,40.421,439.242z"/>
<path style="fill:#FE5A3A;" d="M347.317,68.51l55.375-55.375c6.735-6.735,17.655-6.735,24.39,0l55.375,55.375
	c10.864,10.864,3.17,29.442-12.195,29.442h-28.427v373.627h-53.895V97.952h-28.427C344.148,97.952,336.453,79.374,347.317,68.51z"/>
<path style="fill:#FED76E;" d="M29.544,226.558l55.375-55.375c6.735-6.735,17.655-6.735,24.39,0l55.375,55.375
	c10.864,10.864,3.17,29.442-12.195,29.442H124.06v215.579H70.166V256H41.739C26.374,256,18.68,237.424,29.544,226.558z"/>
<path style="fill:#FE9D5E;" d="M229.053,471.579V180.547h-28.427c-15.365,0-23.059-18.576-12.195-29.442l55.375-55.375
	c6.735-6.735,17.655-6.735,24.39,0l55.375,55.375c10.864,10.864,3.17,29.442-12.195,29.442h-28.426v291.032H229.053z"/>
<path d="M471.579,431.158h-21.66V106.036h20.343c10.439,0,19.406-5.992,23.402-15.637s1.892-20.223-5.491-27.606L432.798,7.42
	C428.014,2.634,421.653,0,414.887,0s-13.128,2.634-17.911,7.419l-55.375,55.375c-7.381,7.383-9.485,17.96-5.49,27.605
	s12.963,15.637,23.402,15.637h20.343v357.459h-8.084c-4.465,0-8.084,3.618-8.084,8.084s3.62,8.084,8.084,8.084h86.232
	c4.465,0,8.084-3.618,8.084-8.084s-3.62-8.084-8.084-8.084h-8.084v-16.168h21.659c13.373,0,24.253,10.88,24.253,24.253
	s-10.879,24.253-24.253,24.253H40.421c-13.373,0-24.253-10.88-24.253-24.253s10.879-24.253,24.253-24.253h21.66v16.168h-8.084
	c-4.465,0-8.084,3.618-8.084,8.084s3.62,8.084,8.084,8.084h86.232c4.465,0,8.084-3.618,8.084-8.084s-3.62-8.084-8.084-8.084h-8.084
	V264.084h20.343c10.44,0,19.408-5.992,23.403-15.638c3.995-9.644,1.891-20.222-5.492-27.604l-55.375-55.375
	c-9.877-9.876-25.947-9.875-35.823,0l-55.375,55.375c-7.383,7.382-9.487,17.96-5.492,27.605
	c3.997,9.645,12.964,15.637,23.404,15.637h20.343v167.074H40.421C18.132,431.158,0,449.29,0,471.579
	C0,493.868,18.132,512,40.421,512h431.158C493.868,512,512,493.868,512,471.579C512,449.29,493.868,431.158,471.579,431.158z
	 M441.834,89.867c-4.465,0-8.084,3.618-8.084,8.084v365.543h-37.726V97.952c0-4.466-3.62-8.084-8.084-8.084h-28.427
	c-5.681,0-7.915-4.33-8.465-5.656c-0.55-1.327-2.031-5.968,1.986-9.986l55.375-55.375c1.73-1.73,4.031-2.683,6.478-2.683
	c2.447,0,4.747,0.953,6.478,2.684l55.375,55.373c4.017,4.018,2.536,8.659,1.987,9.987c-0.55,1.326-2.784,5.656-8.465,5.656
	C470.261,89.867,441.834,89.867,441.834,89.867z M41.739,247.916c-5.681,0-7.915-4.33-8.465-5.656
	c-0.55-1.327-2.031-5.968,1.987-9.985l55.375-55.375c3.571-3.572,9.385-3.572,12.957,0l55.375,55.375
	c4.017,4.016,2.536,8.657,1.987,9.985c-0.55,1.326-2.784,5.656-8.466,5.656h-28.427c-4.465,0-8.084,3.618-8.084,8.084v207.495
	H78.251V256c0-4.466-3.62-8.084-8.084-8.084H41.739z M200.625,188.632h20.343v274.863h-8.084c-4.465,0-8.084,3.618-8.084,8.084
	s3.62,8.084,8.084,8.084h86.232c4.465,0,8.084-3.618,8.084-8.084s-3.62-8.084-8.084-8.084h-8.084V188.632h20.343
	c10.44,0,19.408-5.992,23.402-15.637c3.996-9.645,1.891-20.223-5.491-27.605l-55.375-55.375c-9.876-9.876-25.946-9.876-35.823,0
	l-55.375,55.375c-7.383,7.383-9.485,17.96-5.491,27.605C181.219,182.64,190.186,188.632,200.625,188.632z M194.147,156.823
	l55.375-55.375c3.572-3.571,9.385-3.573,12.957,0l55.375,55.375c4.017,4.016,2.536,8.657,1.987,9.985
	c-0.55,1.326-2.784,5.656-8.465,5.656h-28.428c-4.465,0-8.084,3.618-8.084,8.084v282.947h-37.726V180.547
	c0-4.466-3.62-8.084-8.084-8.084h-28.427c-5.681,0-7.915-4.33-8.465-5.656C191.612,165.479,190.131,160.839,194.147,156.823z
	 M204.879,447.326h-54.59c-4.465,0-8.084-3.618-8.084-8.084c0-4.466,3.62-8.084,8.084-8.084h54.59c4.465,0,8.084,3.618,8.084,8.084
	C212.963,443.708,209.343,447.326,204.879,447.326z M308.278,431.158h54.331c4.465,0,8.084,3.618,8.084,8.084
	c0,4.466-3.62,8.084-8.084,8.084h-54.331c-4.465,0-8.084-3.618-8.084-8.084C300.194,434.776,303.813,431.158,308.278,431.158z"/>
</svg>